<?xml version="1.0" encoding="utf-8"?>
<!-- Generator: Adobe Illustrator 25.0.1, SVG Export Plug-In . SVG Version: 6.00 Build 0)  -->
<svg version="1.1" id="Layer_1" xmlns="http://www.w3.org/2000/svg" xmlns:xlink="http://www.w3.org/1999/xlink" x="0px" y="0px"
	 viewBox="0 0 384 512" style="enable-background:new 0 0 384 512;" xml:space="preserve">
<style type="text/css">
	.st0{fill:#FFFFFF;}
</style>
<path class="st0" d="M202.02,0C122.2,0,70.5,32.7,29.91,91.03c-7.36,10.58-5.09,25.09,5.18,32.87l43.14,32.71
	c10.37,7.87,25.13,6.03,33.25-4.15c25.05-31.38,43.63-49.45,82.76-49.45c30.76,0,68.82,19.8,68.82,49.63
	c0,22.55-18.62,34.13-48.99,51.16c-35.42,19.86-82.3,44.58-82.3,106.4V320c0,13.26,10.74,24,24,24h72.47c13.26,0,24-10.74,24-24
	v-5.77c0-42.86,125.27-44.64,125.27-160.63C377.5,66.26,286.9,0,202.02,0z M192,373.46c-38.2,0-69.27,31.08-69.27,69.27
	c0,38.2,31.08,69.27,69.27,69.27s69.27-31.08,69.27-69.27S230.2,373.46,192,373.46z"/>
</svg>
