<?xml version="1.0" encoding="utf-8"?>
<!-- Generator: Adobe Illustrator 25.0.1, SVG Export Plug-In . SVG Version: 6.00 Build 0)  -->
<svg version="1.1" id="Layer_1" xmlns="http://www.w3.org/2000/svg" xmlns:xlink="http://www.w3.org/1999/xlink" x="0px" y="0px"
	 viewBox="0 0 448 512" style="enable-background:new 0 0 448 512;" xml:space="preserve">
<style type="text/css">
	.st0{fill:#FFFFFF;}
</style>
<path class="st0" d="M433.94,129.94l-83.88-83.88c-9-9-21.21-14.06-33.94-14.06H48C21.49,32,0,53.49,0,80v352
	c0,26.51,21.49,48,48,48h352c26.51,0,48-21.49,48-48V163.88C448,151.15,442.94,138.94,433.94,129.94L433.94,129.94z M224,416
	c-35.35,0-64-28.65-64-64s28.65-64,64-64s64,28.65,64,64S259.35,416,224,416z M320,111.48V212c0,6.63-5.37,12-12,12H76
	c-6.63,0-12-5.37-12-12V108c0-6.63,5.37-12,12-12h228.52c3.18,0,6.23,1.26,8.48,3.51l3.48,3.48C318.74,105.25,320,108.3,320,111.48z
	"/>
</svg>
