
<?xml version="1.0" standalone="no"?>
<!DOCTYPE svg PUBLIC "-//W3C//DTD SVG 20010904//EN"
 "http://www.w3.org/TR/2001/REC-SVG-20010904/DTD/svg10.dtd">
<svg version="1.0" xmlns="http://www.w3.org/2000/svg"
 width="1072.000000pt" height="1280.000000pt" viewBox="0 0 1072.000000 1280.000000"
 preserveAspectRatio="xMidYMid meet">
<metadata>
Created by potrace 1.15, written by Peter Selinger 2001-2017
</metadata>
<g transform="translate(0.000000,1280.000000) scale(0.100000,-0.100000)"
fill="#000000" stroke="none">
<path d="M6605 12203 c-8 -10 -248 -371 -534 -803 l-518 -785 -61 -16 c-125
-33 -222 -84 -310 -163 l-40 -36 -76 79 c-43 43 -108 101 -146 127 -38 27 -77
63 -86 81 -18 32 -64 52 -374 163 -32 11 -44 28 -118 166 -46 84 -87 156 -91
158 -5 3 -82 -31 -172 -75 -90 -45 -179 -87 -196 -94 -18 -8 -33 -19 -33 -25
0 -6 15 -39 32 -73 18 -34 34 -65 36 -69 2 -5 -5 -8 -16 -8 -35 0 -207 -47
-288 -80 -93 -37 -189 -92 -280 -160 l-65 -50 -52 35 c-140 93 -308 78 -434
-38 -24 -22 -56 -60 -70 -84 -14 -24 -27 -43 -30 -43 -2 0 -138 68 -301 151
l-297 152 -560 558 c-547 546 -561 559 -599 559 -33 0 -49 -9 -104 -57 -67
-59 -210 -226 -270 -315 -56 -83 -122 -221 -128 -268 -4 -37 -1 -51 18 -77 16
-22 278 -197 818 -544 437 -281 796 -512 798 -514 2 -1 -27 -19 -63 -39 -75
-41 -161 -102 -222 -159 -40 -37 -42 -38 -53 -18 -15 29 -45 43 -114 51 -128
15 -374 -21 -545 -82 -237 -84 -390 -198 -467 -350 -49 -96 -28 -141 105 -231
42 -28 110 -76 151 -106 l76 -56 -10 -49 c-5 -32 -5 -65 2 -95 12 -53 9 -61
-22 -61 -13 0 -33 -8 -45 -17 -20 -18 -20 -19 -11 -483 20 -971 51 -1477 101
-1601 15 -39 43 -47 134 -38 44 4 91 8 105 8 l26 1 18 -277 c90 -1423 218
-3268 296 -4288 88 -1139 140 -1647 175 -1714 109 -211 1244 -356 3060 -391
1689 -32 3506 58 3950 197 134 42 157 69 193 228 126 543 268 2732 396 6093 8
200 17 366 20 369 3 3 70 -1 150 -11 148 -17 172 -16 180 12 16 52 125 940
166 1352 51 515 70 938 51 1110 -10 89 -9 119 6 205 16 96 16 106 -1 191 -22
114 -68 210 -145 301 -55 65 -60 75 -51 98 46 122 -73 285 -208 285 -15 0 -21
9 -27 38 -26 144 -143 240 -304 250 -75 5 -76 5 -134 58 -44 41 -73 58 -123
74 -78 24 -111 25 -184 6 -30 -8 -56 -13 -58 -11 -3 3 31 134 74 280 10 36 23
56 45 70 36 24 58 63 92 170 63 196 41 268 -101 333 -177 82 -396 95 -493 29
-28 -19 -39 -41 -76 -147 -51 -143 -55 -215 -16 -268 l21 -29 -39 -159 c-21
-87 -41 -169 -44 -182 l-6 -23 -38 31 c-56 44 -136 77 -217 91 -127 22 -270
-19 -373 -108 -52 -44 -117 -140 -133 -197 -16 -56 -23 -63 -69 -71 -54 -9
-184 -75 -236 -120 l-43 -36 -10 26 c-28 72 -85 446 -115 746 -4 36 -10 71
-14 76 -3 6 -26 20 -50 32 -43 22 -43 23 -38 64 3 23 11 98 18 167 l12 125
-58 195 c-32 107 -62 201 -68 208 -13 17 -35 15 -52 -5z"/>
</g>
</svg>
